<svg width="73" height="26" viewBox="0 0 73 26" fill="none" xmlns="http://www.w3.org/2000/svg">
<path d="M0 12.8633V25.7183L2.54595 25.7099L5.0919 25.6974L5.10025 21.7366L5.10859 17.7757L5.44249 17.3918C6.2814 16.4402 7.06605 15.5595 7.45003 15.138C7.67958 14.8834 7.91748 14.6163 7.97592 14.537L8.08443 14.395L8.25138 14.6204C8.3432 14.7456 8.79396 15.3717 9.25306 16.0144C9.708 16.6572 10.2506 17.4085 10.4509 17.6839C10.6471 17.9594 11.0311 18.4936 11.2982 18.8734C11.5653 19.2532 11.8616 19.6664 11.9576 19.7916C12.0536 19.9168 12.3082 20.2758 12.5294 20.5846C12.8675 21.0646 13.673 22.1915 14.537 23.381C14.658 23.5521 15.0837 24.149 15.4802 24.7041L16.1981 25.7183H25.1882C30.4178 25.7183 34.1825 25.7016 34.1825 25.6807C34.1825 25.6598 34.0072 25.3259 33.7902 24.942C33.306 24.0613 32.513 22.6172 32.2209 22.0663C32.0998 21.8367 31.9621 21.5821 31.9162 21.5028C31.8452 21.3735 31.7117 21.1272 31.1023 20.0003C31.023 19.8501 30.927 19.6706 30.8853 19.6038C30.8435 19.5329 30.7309 19.3283 30.6349 19.1447C30.5347 18.9611 30.2467 18.4268 29.9879 17.9552C29.7333 17.4836 29.3744 16.8283 29.1949 16.4944C28.8193 15.7932 28.5021 15.2089 27.9762 14.2406C27.7675 13.8608 27.3335 13.0636 27.0121 12.4668C25.9645 10.5177 25.0338 8.80231 24.8334 8.4392C24.7249 8.24303 24.558 7.93418 24.4578 7.75054C24.3618 7.5669 24.1281 7.13283 23.9361 6.79059C23.7483 6.44417 23.4019 5.8056 23.164 5.37154C22.9302 4.9333 22.6256 4.39072 22.4962 4.16117C22.3668 3.93161 22.1581 3.56016 22.0412 3.33478C21.9202 3.11357 21.8075 2.92993 21.7908 2.92993C21.7741 2.92993 21.5821 3.13027 21.3651 3.37651C20.9686 3.83145 20.0045 4.89991 19.3033 5.66369C18.6105 6.41913 17.5963 7.53768 17.3834 7.77975C17.1121 8.08443 16.4443 8.80648 15.7557 9.54522C14.9919 10.3591 14.8166 10.5511 14.8166 10.5761C14.8166 10.5886 14.971 10.7973 15.163 11.0394C15.3508 11.2815 15.6764 11.7114 15.8809 11.9952C16.0896 12.2748 16.3984 12.6964 16.5737 12.9259C17.3625 13.9693 17.6964 14.4159 17.7382 14.4827C17.7757 14.5453 17.7966 14.5328 17.9302 14.3867C18.0095 14.2949 18.214 14.0695 18.3767 13.8859C18.5437 13.7022 19.0445 13.1596 19.4953 12.6755C19.9461 12.1955 20.3759 11.7281 20.4469 11.6404C20.6097 11.4568 20.6472 11.4484 20.7057 11.5987C20.7516 11.7197 20.977 12.1454 21.9661 13.9485C22.7257 15.33 23.2224 16.2482 23.6105 16.9744C23.7817 17.2958 24.0697 17.8216 24.2491 18.143C24.4244 18.4644 24.6957 18.9611 24.846 19.249C24.9962 19.537 25.2174 19.9377 25.3301 20.1464C25.447 20.3509 25.543 20.5345 25.543 20.5512C25.543 20.5721 24.0697 20.5846 22.2666 20.5846H18.9903L18.8192 20.3676C18.7273 20.2466 18.431 19.8501 18.1639 19.4786C17.8968 19.1113 17.5837 18.6773 17.4669 18.5187C17.3458 18.3559 17.0912 18.0095 16.9034 17.7465C16.7114 17.4836 16.2732 16.8742 15.9268 16.3984C15.5804 15.9184 15.067 15.2047 14.7832 14.8124C14.0361 13.769 13.3975 12.8842 12.4918 11.6279C12.0494 11.0185 11.6863 10.501 11.6863 10.4843C11.6863 10.4634 11.7865 10.3382 11.9075 10.2047C12.1246 9.96677 14.7749 6.94919 15.4009 6.22714C15.7223 5.85568 16.0103 5.52596 17.8801 3.39321C18.4769 2.7129 19.128 1.96998 19.3283 1.74043C19.5287 1.51088 19.9377 1.03925 20.2382 0.697007C20.5387 0.350591 20.785 0.0584329 20.785 0.0459118C20.785 0.0333907 19.2741 0.0250434 17.4335 0.0250434L14.0778 0.029217L13.8692 0.25877C13.7565 0.38398 13.5436 0.630228 13.3934 0.805523C13.2473 0.976644 12.855 1.4274 12.5252 1.80721C12.1913 2.18284 11.8324 2.59603 11.7239 2.72125C11.6154 2.84646 11.223 3.29721 10.8516 3.72293C10.4801 4.14865 9.90416 4.80392 9.57861 5.18372C8.97343 5.88073 8.76057 6.13115 7.13283 8.00513C6.63199 8.5811 6.08524 9.20298 5.91829 9.38662C5.75134 9.57027 5.50927 9.84156 5.38406 9.99598L5.1545 10.2714L5.12946 8.55189C5.11277 7.60446 5.10442 5.32145 5.11277 3.47251C5.11694 1.62357 5.11277 0.0876487 5.10025 0.0584329C5.08772 0.0208697 4.5368 0.00834861 2.54178 0.00834861H0V12.8633Z" fill="#09090B"/>
<path d="M23.2517 0.325549C23.3477 0.509191 23.5189 0.822217 23.6357 1.02673C23.7484 1.23124 23.907 1.5234 23.9863 1.67365C24.0698 1.8239 24.3202 2.27883 24.5414 2.67951C24.7626 3.08018 25.0256 3.56015 25.1257 3.7438C25.2259 3.92744 25.3761 4.20708 25.468 4.3615C25.5556 4.5201 25.6266 4.65366 25.6266 4.66201C25.6266 4.67036 25.8352 5.05851 26.0898 5.52596C26.7702 6.76555 27.0456 7.27474 27.0456 7.29143C27.0456 7.29978 27.1458 7.48342 27.2668 7.69628C27.3879 7.90914 27.5882 8.27225 27.7134 8.5018C27.8344 8.73136 28.0723 9.16542 28.2393 9.4701C28.4104 9.77478 28.5481 10.0294 28.5481 10.0377C28.5481 10.0502 28.6567 10.2506 28.7944 10.4885C28.9279 10.7264 29.1116 11.0644 29.2034 11.2356C29.3578 11.5194 29.8044 12.3458 30.4263 13.4894C30.5557 13.7314 30.8854 14.3241 31.1525 14.8124C31.4196 15.3007 31.6367 15.7098 31.6367 15.7265C31.6367 15.739 31.6993 15.86 31.7786 15.9894C31.8579 16.1188 32.054 16.4777 32.221 16.7866C32.3879 17.0954 32.6008 17.4919 32.6968 17.663C32.797 17.8342 33.0307 18.2682 33.2227 18.623C33.7235 19.5537 34.2411 20.5012 34.5165 20.9811C34.6501 21.2107 34.8629 21.603 34.9965 21.8576C35.2594 22.3584 35.5975 22.9803 35.9982 23.694C36.1401 23.9444 36.4489 24.5037 36.691 24.9336C36.9289 25.3677 37.1334 25.7183 37.1459 25.7183C37.1585 25.7183 37.196 25.6765 37.2252 25.6223C37.3338 25.4553 38.6693 23.0388 39.0241 22.3793C39.2161 22.0245 39.5041 21.4987 39.6627 21.2107C40.0007 20.6055 40.1886 20.2633 41.0066 18.7482C41.3321 18.1388 41.712 17.446 41.8497 17.2039C41.9874 16.9619 42.217 16.5403 42.3631 16.2649C42.5091 15.9894 42.843 15.3675 43.106 14.8875C43.3689 14.4034 43.8364 13.5394 44.1494 12.9676C44.4582 12.3917 44.7921 11.7823 44.8881 11.6112C44.9841 11.4401 45.1719 11.0895 45.3055 10.8391C45.4391 10.5845 45.7062 10.0878 45.9023 9.73304C46.0943 9.37828 46.278 9.04021 46.3072 8.98178C46.424 8.76057 47.1002 7.52098 47.3214 7.12448C47.4466 6.89493 47.6261 6.56521 47.7179 6.39409C47.8097 6.22297 47.9767 5.90994 48.0935 5.70543C48.2104 5.49675 48.3523 5.2338 48.4149 5.12111C48.7154 4.55767 48.8865 4.24047 48.9157 4.2029C48.9324 4.17786 49.0284 4.00257 49.1286 3.8064C49.2288 3.61024 49.3665 3.3473 49.4416 3.22209C49.5126 3.09688 49.6503 2.84228 49.7505 2.65864C49.8465 2.475 50.0009 2.19536 50.0927 2.03676C50.1845 1.88233 50.4642 1.37314 50.7146 0.909864L51.1654 0.0709532L51.0109 0.0500841C50.9275 0.0375631 49.5961 0.0333895 48.0518 0.0417369L45.2512 0.0500841L45.0509 0.417369C44.8631 0.763785 44.7254 1.01003 44.4958 1.43158C44.4332 1.54009 44.2829 1.81973 44.1536 2.05763C44.0242 2.29553 43.8197 2.67116 43.6986 2.88819C43.5776 3.10522 43.3564 3.51842 43.2061 3.8064C43.0559 4.09439 42.9015 4.37402 42.8639 4.43246C42.8222 4.49089 42.6719 4.76218 42.53 5.03764C42.3839 5.3131 42.2337 5.59274 42.1961 5.66369C42.1585 5.73047 41.9874 6.05185 41.8205 6.37322C41.6535 6.69459 41.5033 6.97423 41.4824 6.99927C41.4657 7.02014 41.3906 7.1537 41.3196 7.29143C40.9857 7.90914 40.9023 8.06356 40.7144 8.41833C40.6018 8.62284 40.4682 8.86491 40.4139 8.94839C40.3639 9.03603 40.3179 9.11533 40.3179 9.12368C40.3179 9.1362 40.1802 9.39497 40.0133 9.69965C39.742 10.188 39.5082 10.6179 39.0241 11.5069C38.949 11.6446 38.7612 11.9827 38.6067 12.2581C38.2937 12.8216 38.181 13.0219 37.8263 13.6772C37.3212 14.5996 37.1668 14.8667 37.1292 14.8542C37.0917 14.8416 36.954 14.5996 36.5366 13.8233C36.4072 13.5812 36.1651 13.1388 35.9982 12.8424C35.4932 11.9326 34.9798 11.0018 34.5749 10.2548C34.3663 9.86242 33.9531 9.10281 33.6609 8.56441C33.3688 8.026 33.0557 7.44168 32.9639 7.27056C32.7344 6.84067 32.3545 6.14784 31.9914 5.49675C31.8245 5.19624 31.5532 4.69957 31.3863 4.39072C30.0757 1.95746 29.1366 0.250423 29.049 0.137733C28.9864 0.0542594 28.9279 0.0542582 26.0314 0.0250424L23.0723 6.59683e-07L23.2517 0.325549Z" fill="url(#paint0_linear_318_1571)"/>
<path d="M31.5532 0.045926C31.5532 0.0667944 31.645 0.242089 31.7536 0.434079C31.8662 0.621895 32.1334 1.0977 32.3462 1.49002C32.5591 1.87817 32.8679 2.44162 33.0349 2.74213C33.2018 3.03846 33.4105 3.42661 33.5023 3.59773C33.5942 3.76886 33.8654 4.25718 34.0992 4.68289C34.3329 5.10861 34.7586 5.87657 35.0383 6.39411C35.8104 7.81316 36.4907 9.06109 36.6368 9.31569C36.7077 9.4409 36.8413 9.68714 36.9331 9.85827C37.0249 10.0294 37.1126 10.1755 37.1334 10.1796C37.1501 10.1838 37.3171 9.91252 37.5007 9.57863C37.6844 9.24056 37.9223 8.81067 38.0266 8.62703C38.131 8.44339 38.2937 8.15123 38.3855 7.98011C38.7946 7.21632 39.1243 6.61531 39.2161 6.46923C39.2704 6.38158 39.3163 6.30228 39.3163 6.29394C39.3163 6.28142 39.5124 5.92248 39.7462 5.48842C39.9841 5.05853 40.4014 4.29891 40.6686 3.80642C40.9398 3.31392 41.2529 2.75048 41.3614 2.55431C41.4699 2.35815 41.6452 2.04095 41.7454 1.84479C41.9791 1.40655 42.505 0.463295 42.6385 0.250437C42.6928 0.162789 42.7387 0.0793155 42.7387 0.0626207C42.7387 0.0417523 40.222 0.0250575 37.146 0.0208838C33.9072 0.0125365 31.5532 0.0250575 31.5532 0.045926Z" fill="#09090B"/>
<path d="M57.434 0.0749971C54.8379 0.354634 52.5591 2.01994 51.428 4.46572C50.7853 5.85138 50.6016 7.72954 50.9648 9.2112C51.1734 10.0585 51.5741 10.96 52.0541 11.6612C53.085 13.1679 54.9465 14.4158 56.6994 14.7747C57.4757 14.9375 57.868 14.95 61.6828 14.95C65.2555 14.95 65.4015 14.9542 65.7146 15.0335C66.7455 15.2964 67.5259 16.0727 67.7847 17.0786C67.8724 17.4334 67.8557 18.1178 67.743 18.5185C67.6136 18.986 67.4425 19.2823 67.071 19.6788C66.6077 20.1671 66.2238 20.38 65.5393 20.5219C65.2763 20.5762 64.1369 20.5845 56.9707 20.5845C51.8371 20.5845 48.7068 20.5678 48.7068 20.5469C48.7068 20.5219 48.7235 20.4969 48.7485 20.4802C48.7861 20.4551 49.0532 19.9918 49.3954 19.3533C49.504 19.1446 49.6667 18.8566 49.7502 18.7063C49.8337 18.5561 50.0424 18.1805 50.2093 17.8716C50.3763 17.5627 50.5933 17.1662 50.6893 16.9951C50.7853 16.824 50.9439 16.5318 51.0357 16.3482C51.211 16.0143 51.3446 15.7681 51.6117 15.3131C51.7578 15.0669 51.7828 14.9667 51.716 14.9417C51.691 14.9333 51.4948 14.7539 51.2778 14.541C50.2928 13.5811 49.3579 12.2789 48.7235 10.9892C48.5649 10.6678 48.4272 10.4049 48.4146 10.4049C48.4021 10.4049 48.2018 10.7638 47.9639 11.2062C47.7301 11.6445 47.3503 12.354 47.1166 12.7797C46.8871 13.2054 46.3737 14.1445 45.9855 14.8665C45.5932 15.5886 45.1132 16.4734 44.9171 16.8282C44.7209 17.1829 44.4413 17.7005 44.291 17.9759C44.1449 18.2514 43.9905 18.531 43.9488 18.602C43.8695 18.7314 42.7593 20.7723 42.4463 21.3566C42.3503 21.5403 42.2167 21.7823 42.1541 21.8992C42.0915 22.0119 41.9872 22.1997 41.9245 22.3166C41.0147 23.9735 40.4679 24.9502 40.2551 25.3008C40.1799 25.426 40.109 25.5679 40.1048 25.6138C40.0881 25.6973 40.1132 25.6973 52.9431 25.6973H65.798L66.3197 25.6054C67.7638 25.3467 68.9951 24.7832 70.1011 23.8775C70.4726 23.577 71.1111 22.8967 71.4534 22.4418C72.6095 20.9017 73.2063 18.5978 72.935 16.7071C72.6763 14.9208 71.8916 13.3598 70.6479 12.1411C69.5794 11.0977 68.4442 10.4466 67.1086 10.1085C66.1528 9.87064 66.0568 9.86647 61.8163 9.83725C59.4499 9.82473 57.843 9.79552 57.7261 9.77047C57.3505 9.69117 56.929 9.44075 56.5951 9.10686C56.2528 8.76461 56.09 8.48498 55.9899 8.05509C55.8438 7.42486 55.9815 6.69029 56.3488 6.13937C56.6577 5.68026 57.1335 5.35471 57.7053 5.20863C57.9348 5.1502 58.7028 5.14185 64.7797 5.14185H71.5995V2.59173V0.0374339L64.7755 0.0290865C59.2871 0.0207391 57.8513 0.0290865 57.434 0.0749971Z" fill="#09090B"/>
<defs>
<linearGradient id="paint0_linear_318_1571" x1="46.7193" y1="25.7308" x2="23.0702" y2="9.68209e-06" gradientUnits="userSpaceOnUse">
<stop stop-color="#C400E2"/>
<stop offset="1" stop-color="#0024D9"/>
</linearGradient>
</defs>
</svg>
